<svg width="160" height="160" viewBox="0 0 160 160" fill="none" xmlns="http://www.w3.org/2000/svg">
  <rect width="160" height="160" rx="32" fill="#FFFEFA"/>
  <path d="M80 136C47.072 118.716 26 95.252 26 68.792C26 50.108 40.843 36 58.616 36C68.042 36 75.65 40.176 80 47.013C84.35 40.176 91.958 36 101.384 36C119.157 36 134 50.108 134 68.792C134 95.252 112.928 118.716 80 136Z" fill="#F8BBD0"/>
  <path d="M52 74C57.6 74 61 70.8 64.2 64.4C66.8 58.9 69.7 57 73.4 57C77.4 57 80 60.2 80 64.6C80 68.8 77.4 72 73.2 72H72.6V79H73.4C80.2 79 85.4 73.6 85.4 64.8C85.4 56.2 80.2 50 72.8 50C66.4 50 62.4 53.3 58.8 60.8C56.2 66.3 54.2 68 50.8 68C47.8 68 45.8 65.8 45.8 62.8C45.8 59.7 47.8 57.6 50.8 57.6H52.8V50.6H50.8C43.6 50.6 38.8 55.5 38.8 62.8C38.8 70.1 43.8 74 52 74Z" fill="#66CCFF"/>
  <circle cx="106" cy="84" r="18" fill="#66FF99" fill-opacity="0.75"/>
  <circle cx="116" cy="54" r="8" fill="#FFF59D" fill-opacity="0.95"/>
</svg>
